STARTFONT 2.1
FONT -FontForge-IBM Plex Mono-Book-R-Normal--6-60-75-75-P-39-ISO10646-1
SIZE 6 75 75
FONTBOUNDINGBOX 4 6 0 -1
COMMENT "Generated by fontforge, http://fontforge.sourceforge.net"
COMMENT "Copyright 2017 IBM Corp. All rights reserved."
STARTPROPERTIES 40
FOUNDRY "FontForge"
FAMILY_NAME "IBM Plex Mono"
WEIGHT_NAME "Book"
SLANT "R"
SETWIDTH_NAME "Normal"
ADD_STYLE_NAME ""
PIXEL_SIZE 6
POINT_SIZE 60
RESOLUTION_X 75
RESOLUTION_Y 75
SPACING "P"
AVERAGE_WIDTH 39
CHARSET_REGISTRY "ISO10646"
CHARSET_ENCODING "1"
FONTNAME_REGISTRY ""
CHARSET_COLLECTIONS "ISO10646-1"
FONT_NAME "IBMPlexMono-Regular"
FACE_NAME "IBM Plex Mono Regular"
COPYRIGHT "Copyright 2017 IBM Corp. All rights reserved."
FONT_VERSION "2.3"
FONT_ASCENT 5
FONT_DESCENT 1
UNDERLINE_POSITION -1
UNDERLINE_THICKNESS 1
X_HEIGHT 2
CAP_HEIGHT 3
RAW_ASCENT 800
RAW_DESCENT 200
NORM_SPACE 4
RELATIVE_WEIGHT 40
RELATIVE_SETWIDTH 50
SUPERSCRIPT_X 0
SUPERSCRIPT_Y 2
SUPERSCRIPT_SIZE 3
SUBSCRIPT_X 0
SUBSCRIPT_Y 0
SUBSCRIPT_SIZE 3
FIGURE_WIDTH 4
AVG_LOWERCASE_WIDTH 40
AVG_UPPERCASE_WIDTH 40
ENDPROPERTIES
CHARS 129
STARTCHAR .null
ENCODING 0
SWIDTH 0 0
DWIDTH 0 0
BBX 1 1 0 0
BITMAP
00
ENDCHAR
STARTCHAR uni000D
ENCODING 13
SWIDTH 600 0
DWIDTH 4 0
BBX 1 1 0 0
BITMAP
00
ENDCHAR
STARTCHAR space
ENCODING 32
SWIDTH 600 0
DWIDTH 4 0
BBX 1 1 0 0
BITMAP
00
ENDCHAR
STARTCHAR exclam
ENCODING 33
SWIDTH 600 0
DWIDTH 4 0
BBX 1 4 1 0
BITMAP
80
80
80
80
ENDCHAR
STARTCHAR quotedbl
ENCODING 34
SWIDTH 600 0
DWIDTH 4 0
BBX 2 1 1 3
BITMAP
C0
ENDCHAR
STARTCHAR numbersign
ENCODING 35
SWIDTH 600 0
DWIDTH 4 0
BBX 4 4 0 0
BITMAP
60
F0
A0
C0
ENDCHAR
STARTCHAR dollar
ENCODING 36
SWIDTH 600 0
DWIDTH 4 0
BBX 3 6 0 -1
BITMAP
40
E0
C0
60
A0
40
ENDCHAR
STARTCHAR percent
ENCODING 37
SWIDTH 600 0
DWIDTH 4 0
BBX 3 4 0 0
BITMAP
E0
E0
E0
E0
ENDCHAR
STARTCHAR ampersand
ENCODING 38
SWIDTH 600 0
DWIDTH 4 0
BBX 3 4 0 0
BITMAP
E0
80
E0
E0
ENDCHAR
STARTCHAR quotesingle
ENCODING 39
SWIDTH 600 0
DWIDTH 4 0
BBX 1 1 1 3
BITMAP
80
ENDCHAR
STARTCHAR parenleft
ENCODING 40
SWIDTH 600 0
DWIDTH 4 0
BBX 2 6 1 -1
BITMAP
40
80
80
80
80
40
ENDCHAR
STARTCHAR parenright
ENCODING 41
SWIDTH 600 0
DWIDTH 4 0
BBX 1 6 1 -1
BITMAP
80
80
80
80
80
80
ENDCHAR
STARTCHAR asterisk
ENCODING 42
SWIDTH 600 0
DWIDTH 4 0
BBX 3 3 0 0
BITMAP
E0
40
A0
ENDCHAR
STARTCHAR plus
ENCODING 43
SWIDTH 600 0
DWIDTH 4 0
BBX 3 3 0 0
BITMAP
40
E0
40
ENDCHAR
STARTCHAR comma
ENCODING 44
SWIDTH 600 0
DWIDTH 4 0
BBX 1 2 1 -1
BITMAP
80
80
ENDCHAR
STARTCHAR hyphen
ENCODING 45
SWIDTH 600 0
DWIDTH 4 0
BBX 2 1 1 1
BITMAP
C0
ENDCHAR
STARTCHAR period
ENCODING 46
SWIDTH 600 0
DWIDTH 4 0
BBX 1 1 1 0
BITMAP
80
ENDCHAR
STARTCHAR slash
ENCODING 47
SWIDTH 600 0
DWIDTH 4 0
BBX 2 6 1 -1
BITMAP
40
40
80
80
80
80
ENDCHAR
STARTCHAR zero
ENCODING 48
SWIDTH 600 0
DWIDTH 4 0
BBX 3 4 0 0
BITMAP
E0
A0
E0
E0
ENDCHAR
STARTCHAR one
ENCODING 49
SWIDTH 600 0
DWIDTH 4 0
BBX 3 4 0 0
BITMAP
C0
40
40
60
ENDCHAR
STARTCHAR two
ENCODING 50
SWIDTH 600 0
DWIDTH 4 0
BBX 3 4 0 0
BITMAP
E0
20
40
E0
ENDCHAR
STARTCHAR three
ENCODING 51
SWIDTH 600 0
DWIDTH 4 0
BBX 3 4 0 0
BITMAP
E0
20
60
E0
ENDCHAR
STARTCHAR four
ENCODING 52
SWIDTH 600 0
DWIDTH 4 0
BBX 3 4 0 0
BITMAP
20
E0
A0
60
ENDCHAR
STARTCHAR five
ENCODING 53
SWIDTH 600 0
DWIDTH 4 0
BBX 3 4 0 0
BITMAP
E0
40
20
E0
ENDCHAR
STARTCHAR six
ENCODING 54
SWIDTH 600 0
DWIDTH 4 0
BBX 3 4 0 0
BITMAP
60
40
A0
E0
ENDCHAR
STARTCHAR seven
ENCODING 55
SWIDTH 600 0
DWIDTH 4 0
BBX 3 4 0 0
BITMAP
E0
20
40
40
ENDCHAR
STARTCHAR eight
ENCODING 56
SWIDTH 600 0
DWIDTH 4 0
BBX 3 4 0 0
BITMAP
E0
A0
E0
E0
ENDCHAR
STARTCHAR nine
ENCODING 57
SWIDTH 600 0
DWIDTH 4 0
BBX 3 4 0 0
BITMAP
E0
A0
60
40
ENDCHAR
STARTCHAR colon
ENCODING 58
SWIDTH 600 0
DWIDTH 4 0
BBX 1 3 1 0
BITMAP
80
00
80
ENDCHAR
STARTCHAR semicolon
ENCODING 59
SWIDTH 600 0
DWIDTH 4 0
BBX 1 4 1 -1
BITMAP
80
00
80
80
ENDCHAR
STARTCHAR less
ENCODING 60
SWIDTH 600 0
DWIDTH 4 0
BBX 2 4 1 0
BITMAP
40
80
80
40
ENDCHAR
STARTCHAR equal
ENCODING 61
SWIDTH 600 0
DWIDTH 4 0
BBX 3 2 0 1
BITMAP
E0
E0
ENDCHAR
STARTCHAR greater
ENCODING 62
SWIDTH 600 0
DWIDTH 4 0
BBX 2 4 1 0
BITMAP
80
80
40
80
ENDCHAR
STARTCHAR question
ENCODING 63
SWIDTH 600 0
DWIDTH 4 0
BBX 3 4 0 0
BITMAP
E0
20
40
40
ENDCHAR
STARTCHAR at
ENCODING 64
SWIDTH 600 0
DWIDTH 4 0
BBX 3 5 0 -1
BITMAP
E0
E0
E0
C0
60
ENDCHAR
STARTCHAR A
ENCODING 65
SWIDTH 600 0
DWIDTH 4 0
BBX 3 4 0 0
BITMAP
40
A0
60
A0
ENDCHAR
STARTCHAR B
ENCODING 66
SWIDTH 600 0
DWIDTH 4 0
BBX 2 4 1 0
BITMAP
C0
C0
C0
C0
ENDCHAR
STARTCHAR C
ENCODING 67
SWIDTH 600 0
DWIDTH 4 0
BBX 3 4 0 0
BITMAP
E0
80
80
E0
ENDCHAR
STARTCHAR D
ENCODING 68
SWIDTH 600 0
DWIDTH 4 0
BBX 2 4 1 0
BITMAP
C0
C0
C0
C0
ENDCHAR
STARTCHAR E
ENCODING 69
SWIDTH 600 0
DWIDTH 4 0
BBX 2 4 1 0
BITMAP
C0
80
C0
C0
ENDCHAR
STARTCHAR F
ENCODING 70
SWIDTH 600 0
DWIDTH 4 0
BBX 2 4 1 0
BITMAP
C0
80
C0
80
ENDCHAR
STARTCHAR G
ENCODING 71
SWIDTH 600 0
DWIDTH 4 0
BBX 3 4 0 0
BITMAP
E0
80
A0
E0
ENDCHAR
STARTCHAR H
ENCODING 72
SWIDTH 600 0
DWIDTH 4 0
BBX 3 4 0 0
BITMAP
A0
A0
E0
A0
ENDCHAR
STARTCHAR I
ENCODING 73
SWIDTH 600 0
DWIDTH 4 0
BBX 3 4 0 0
BITMAP
E0
40
40
E0
ENDCHAR
STARTCHAR J
ENCODING 74
SWIDTH 600 0
DWIDTH 4 0
BBX 3 4 0 0
BITMAP
60
20
20
E0
ENDCHAR
STARTCHAR K
ENCODING 75
SWIDTH 600 0
DWIDTH 4 0
BBX 2 4 1 0
BITMAP
C0
80
C0
C0
ENDCHAR
STARTCHAR L
ENCODING 76
SWIDTH 600 0
DWIDTH 4 0
BBX 2 4 1 0
BITMAP
80
80
80
C0
ENDCHAR
STARTCHAR M
ENCODING 77
SWIDTH 600 0
DWIDTH 4 0
BBX 3 4 0 0
BITMAP
A0
E0
E0
A0
ENDCHAR
STARTCHAR N
ENCODING 78
SWIDTH 600 0
DWIDTH 4 0
BBX 3 4 0 0
BITMAP
A0
E0
E0
A0
ENDCHAR
STARTCHAR O
ENCODING 79
SWIDTH 600 0
DWIDTH 4 0
BBX 3 4 0 0
BITMAP
E0
A0
A0
E0
ENDCHAR
STARTCHAR P
ENCODING 80
SWIDTH 600 0
DWIDTH 4 0
BBX 2 4 1 0
BITMAP
C0
C0
80
80
ENDCHAR
STARTCHAR Q
ENCODING 81
SWIDTH 600 0
DWIDTH 4 0
BBX 3 5 0 -1
BITMAP
E0
A0
A0
A0
60
ENDCHAR
STARTCHAR R
ENCODING 82
SWIDTH 600 0
DWIDTH 4 0
BBX 2 4 1 0
BITMAP
C0
C0
80
C0
ENDCHAR
STARTCHAR S
ENCODING 83
SWIDTH 600 0
DWIDTH 4 0
BBX 3 4 0 0
BITMAP
E0
80
60
E0
ENDCHAR
STARTCHAR T
ENCODING 84
SWIDTH 600 0
DWIDTH 4 0
BBX 3 4 0 0
BITMAP
E0
40
40
40
ENDCHAR
STARTCHAR U
ENCODING 85
SWIDTH 600 0
DWIDTH 4 0
BBX 3 4 0 0
BITMAP
A0
A0
A0
E0
ENDCHAR
STARTCHAR V
ENCODING 86
SWIDTH 600 0
DWIDTH 4 0
BBX 3 4 0 0
BITMAP
A0
A0
60
40
ENDCHAR
STARTCHAR W
ENCODING 87
SWIDTH 600 0
DWIDTH 4 0
BBX 3 4 0 0
BITMAP
A0
E0
E0
A0
ENDCHAR
STARTCHAR X
ENCODING 88
SWIDTH 600 0
DWIDTH 4 0
BBX 3 4 0 0
BITMAP
A0
40
60
A0
ENDCHAR
STARTCHAR Y
ENCODING 89
SWIDTH 600 0
DWIDTH 4 0
BBX 4 4 0 0
BITMAP
B0
60
40
40
ENDCHAR
STARTCHAR Z
ENCODING 90
SWIDTH 600 0
DWIDTH 4 0
BBX 3 4 0 0
BITMAP
E0
40
40
E0
ENDCHAR
STARTCHAR bracketleft
ENCODING 91
SWIDTH 600 0
DWIDTH 4 0
BBX 2 6 1 -1
BITMAP
C0
80
80
80
80
C0
ENDCHAR
STARTCHAR backslash
ENCODING 92
SWIDTH 600 0
DWIDTH 4 0
BBX 2 6 1 -1
BITMAP
80
80
80
80
40
40
ENDCHAR
STARTCHAR bracketright
ENCODING 93
SWIDTH 600 0
DWIDTH 4 0
BBX 1 6 1 -1
BITMAP
80
80
80
80
80
80
ENDCHAR
STARTCHAR asciicircum
ENCODING 94
SWIDTH 600 0
DWIDTH 4 0
BBX 3 2 0 2
BITMAP
40
A0
ENDCHAR
STARTCHAR underscore
ENCODING 95
SWIDTH 600 0
DWIDTH 4 0
BBX 3 1 0 -1
BITMAP
E0
ENDCHAR
STARTCHAR grave
ENCODING 96
SWIDTH 600 0
DWIDTH 4 0
BBX 1 1 1 4
BITMAP
80
ENDCHAR
STARTCHAR a
ENCODING 97
SWIDTH 600 0
DWIDTH 4 0
BBX 3 3 0 0
BITMAP
E0
60
E0
ENDCHAR
STARTCHAR b
ENCODING 98
SWIDTH 600 0
DWIDTH 4 0
BBX 2 4 1 0
BITMAP
80
C0
C0
C0
ENDCHAR
STARTCHAR c
ENCODING 99
SWIDTH 600 0
DWIDTH 4 0
BBX 3 3 0 0
BITMAP
E0
80
E0
ENDCHAR
STARTCHAR d
ENCODING 100
SWIDTH 600 0
DWIDTH 4 0
BBX 3 4 0 0
BITMAP
20
E0
A0
E0
ENDCHAR
STARTCHAR e
ENCODING 101
SWIDTH 600 0
DWIDTH 4 0
BBX 3 3 0 0
BITMAP
E0
E0
E0
ENDCHAR
STARTCHAR f
ENCODING 102
SWIDTH 600 0
DWIDTH 4 0
BBX 3 4 0 0
BITMAP
60
E0
40
E0
ENDCHAR
STARTCHAR g
ENCODING 103
SWIDTH 600 0
DWIDTH 4 0
BBX 3 5 0 -1
BITMAP
20
E0
A0
C0
E0
ENDCHAR
STARTCHAR h
ENCODING 104
SWIDTH 600 0
DWIDTH 4 0
BBX 2 4 1 0
BITMAP
80
C0
C0
C0
ENDCHAR
STARTCHAR i
ENCODING 105
SWIDTH 600 0
DWIDTH 4 0
BBX 2 3 1 0
BITMAP
80
80
C0
ENDCHAR
STARTCHAR j
ENCODING 106
SWIDTH 600 0
DWIDTH 4 0
BBX 2 5 1 -1
BITMAP
40
C0
40
40
C0
ENDCHAR
STARTCHAR k
ENCODING 107
SWIDTH 600 0
DWIDTH 4 0
BBX 2 4 1 0
BITMAP
80
C0
80
C0
ENDCHAR
STARTCHAR l
ENCODING 108
SWIDTH 600 0
DWIDTH 4 0
BBX 3 4 0 0
BITMAP
C0
40
40
E0
ENDCHAR
STARTCHAR m
ENCODING 109
SWIDTH 600 0
DWIDTH 4 0
BBX 3 3 0 0
BITMAP
E0
E0
E0
ENDCHAR
STARTCHAR n
ENCODING 110
SWIDTH 600 0
DWIDTH 4 0
BBX 2 3 1 0
BITMAP
C0
C0
C0
ENDCHAR
STARTCHAR o
ENCODING 111
SWIDTH 600 0
DWIDTH 4 0
BBX 3 3 0 0
BITMAP
E0
A0
E0
ENDCHAR
STARTCHAR p
ENCODING 112
SWIDTH 600 0
DWIDTH 4 0
BBX 2 4 1 -1
BITMAP
C0
C0
C0
80
ENDCHAR
STARTCHAR q
ENCODING 113
SWIDTH 600 0
DWIDTH 4 0
BBX 3 4 0 -1
BITMAP
E0
A0
A0
60
ENDCHAR
STARTCHAR r
ENCODING 114
SWIDTH 600 0
DWIDTH 4 0
BBX 3 3 0 0
BITMAP
E0
40
E0
ENDCHAR
STARTCHAR s
ENCODING 115
SWIDTH 600 0
DWIDTH 4 0
BBX 3 3 0 0
BITMAP
E0
60
E0
ENDCHAR
STARTCHAR t
ENCODING 116
SWIDTH 600 0
DWIDTH 4 0
BBX 3 4 0 0
BITMAP
40
E0
40
60
ENDCHAR
STARTCHAR u
ENCODING 117
SWIDTH 600 0
DWIDTH 4 0
BBX 2 3 1 0
BITMAP
C0
C0
C0
ENDCHAR
STARTCHAR v
ENCODING 118
SWIDTH 600 0
DWIDTH 4 0
BBX 3 3 0 0
BITMAP
A0
A0
40
ENDCHAR
STARTCHAR w
ENCODING 119
SWIDTH 600 0
DWIDTH 4 0
BBX 3 3 0 0
BITMAP
E0
E0
A0
ENDCHAR
STARTCHAR x
ENCODING 120
SWIDTH 600 0
DWIDTH 4 0
BBX 3 3 0 0
BITMAP
A0
40
A0
ENDCHAR
STARTCHAR y
ENCODING 121
SWIDTH 600 0
DWIDTH 4 0
BBX 3 4 0 -1
BITMAP
A0
A0
40
C0
ENDCHAR
STARTCHAR z
ENCODING 122
SWIDTH 600 0
DWIDTH 4 0
BBX 2 3 1 0
BITMAP
C0
80
C0
ENDCHAR
STARTCHAR braceleft
ENCODING 123
SWIDTH 600 0
DWIDTH 4 0
BBX 2 6 1 -1
BITMAP
40
80
80
80
80
C0
ENDCHAR
STARTCHAR bar
ENCODING 124
SWIDTH 600 0
DWIDTH 4 0
BBX 1 6 1 -1
BITMAP
80
80
80
80
80
80
ENDCHAR
STARTCHAR braceright
ENCODING 125
SWIDTH 600 0
DWIDTH 4 0
BBX 2 6 1 -1
BITMAP
80
80
80
C0
80
80
ENDCHAR
STARTCHAR asciitilde
ENCODING 126
SWIDTH 600 0
DWIDTH 4 0
BBX 3 1 0 1
BITMAP
E0
ENDCHAR
STARTCHAR uni00A0
ENCODING 160
SWIDTH 600 0
DWIDTH 4 0
BBX 1 1 0 0
BITMAP
00
ENDCHAR
STARTCHAR exclamdown
ENCODING 161
SWIDTH 600 0
DWIDTH 4 0
BBX 1 4 1 -1
BITMAP
80
80
80
80
ENDCHAR
STARTCHAR cent
ENCODING 162
SWIDTH 600 0
DWIDTH 4 0
BBX 3 5 0 -1
BITMAP
40
E0
C0
A0
40
ENDCHAR
STARTCHAR sterling
ENCODING 163
SWIDTH 600 0
DWIDTH 4 0
BBX 3 4 0 0
BITMAP
E0
80
C0
E0
ENDCHAR
STARTCHAR currency
ENCODING 164
SWIDTH 600 0
DWIDTH 4 0
BBX 3 4 0 0
BITMAP
A0
E0
A0
E0
ENDCHAR
STARTCHAR yen
ENCODING 165
SWIDTH 600 0
DWIDTH 4 0
BBX 3 4 0 0
BITMAP
A0
60
C0
E0
ENDCHAR
STARTCHAR brokenbar
ENCODING 166
SWIDTH 600 0
DWIDTH 4 0
BBX 1 6 1 -1
BITMAP
80
80
80
00
80
80
ENDCHAR
STARTCHAR section
ENCODING 167
SWIDTH 600 0
DWIDTH 4 0
BBX 3 5 0 -1
BITMAP
E0
60
A0
60
60
ENDCHAR
STARTCHAR dieresis
ENCODING 168
SWIDTH 600 0
DWIDTH 4 0
BBX 2 1 1 4
BITMAP
C0
ENDCHAR
STARTCHAR copyright
ENCODING 169
SWIDTH 600 0
DWIDTH 4 0
BBX 4 4 0 0
BITMAP
E0
D0
B0
E0
ENDCHAR
STARTCHAR ordfeminine
ENCODING 170
SWIDTH 600 0
DWIDTH 4 0
BBX 2 2 1 2
BITMAP
C0
C0
ENDCHAR
STARTCHAR guillemotleft
ENCODING 171
SWIDTH 600 0
DWIDTH 4 0
BBX 3 3 0 0
BITMAP
60
C0
60
ENDCHAR
STARTCHAR logicalnot
ENCODING 172
SWIDTH 600 0
DWIDTH 4 0
BBX 3 2 0 0
BITMAP
E0
20
ENDCHAR
STARTCHAR uni00AD
ENCODING 173
SWIDTH 600 0
DWIDTH 4 0
BBX 2 1 1 1
BITMAP
C0
ENDCHAR
STARTCHAR registered
ENCODING 174
SWIDTH 600 0
DWIDTH 4 0
BBX 2 2 1 2
BITMAP
C0
C0
ENDCHAR
STARTCHAR macron
ENCODING 175
SWIDTH 600 0
DWIDTH 4 0
BBX 2 1 1 4
BITMAP
C0
ENDCHAR
STARTCHAR degree
ENCODING 176
SWIDTH 600 0
DWIDTH 4 0
BBX 2 2 1 2
BITMAP
C0
C0
ENDCHAR
STARTCHAR plusminus
ENCODING 177
SWIDTH 600 0
DWIDTH 4 0
BBX 3 4 0 0
BITMAP
40
E0
40
E0
ENDCHAR
STARTCHAR twosuperior
ENCODING 178
SWIDTH 600 0
DWIDTH 4 0
BBX 2 2 1 2
BITMAP
C0
C0
ENDCHAR
STARTCHAR threesuperior
ENCODING 179
SWIDTH 600 0
DWIDTH 4 0
BBX 2 2 1 2
BITMAP
C0
C0
ENDCHAR
STARTCHAR acute
ENCODING 180
SWIDTH 600 0
DWIDTH 4 0
BBX 1 1 2 4
BITMAP
80
ENDCHAR
STARTCHAR mu
ENCODING 181
SWIDTH 600 0
DWIDTH 4 0
BBX 2 4 1 -1
BITMAP
C0
C0
C0
80
ENDCHAR
STARTCHAR paragraph
ENCODING 182
SWIDTH 600 0
DWIDTH 4 0
BBX 3 5 0 -1
BITMAP
E0
E0
60
60
60
ENDCHAR
STARTCHAR periodcentered
ENCODING 183
SWIDTH 600 0
DWIDTH 4 0
BBX 1 1 1 1
BITMAP
80
ENDCHAR
STARTCHAR cedilla
ENCODING 184
SWIDTH 600 0
DWIDTH 4 0
BBX 2 1 1 -1
BITMAP
C0
ENDCHAR
STARTCHAR onesuperior
ENCODING 185
SWIDTH 600 0
DWIDTH 4 0
BBX 2 2 1 2
BITMAP
80
C0
ENDCHAR
STARTCHAR ordmasculine
ENCODING 186
SWIDTH 600 0
DWIDTH 4 0
BBX 2 2 1 2
BITMAP
C0
C0
ENDCHAR
STARTCHAR guillemotright
ENCODING 187
SWIDTH 600 0
DWIDTH 4 0
BBX 3 3 0 0
BITMAP
C0
60
C0
ENDCHAR
STARTCHAR onequarter
ENCODING 188
SWIDTH 600 0
DWIDTH 4 0
BBX 4 4 0 0
BITMAP
A0
A0
E0
B0
ENDCHAR
STARTCHAR onehalf
ENCODING 189
SWIDTH 600 0
DWIDTH 4 0
BBX 3 4 0 0
BITMAP
A0
A0
E0
A0
ENDCHAR
STARTCHAR threequarters
ENCODING 190
SWIDTH 600 0
DWIDTH 4 0
BBX 4 4 0 0
BITMAP
E0
E0
A0
B0
ENDCHAR
STARTCHAR questiondown
ENCODING 191
SWIDTH 600 0
DWIDTH 4 0
BBX 2 4 1 -1
BITMAP
80
80
80
C0
ENDCHAR
ENDFONT
